<svg width="144" height="56" viewBox="0 0 144 56" fill="none" xmlns="http://www.w3.org/2000/svg">
<path d="M44 20V37.6C44.0013 38.4408 43.8367 39.2737 43.5155 40.0507C43.1944 40.8278 42.723 41.5339 42.1284 42.1284C41.5339 42.723 40.8278 43.1944 40.0507 43.5155C39.2737 43.8367 38.4408 44.0013 37.6 44H18.4C17.5592 44.0013 16.7264 43.8367 15.9493 43.5155C15.1722 43.1944 14.4661 42.723 13.8716 42.1284C13.277 41.5339 12.8057 40.8278 12.4845 40.0507C12.1633 39.2737 11.9987 38.4408 12 37.6V18.4C11.9987 17.5592 12.1633 16.7264 12.4845 15.9493C12.8057 15.1722 13.277 14.4661 13.8716 13.8716C14.4661 13.277 15.1722 12.8057 15.9493 12.4845C16.7264 12.1633 17.5592 11.9987 18.4 12H37.6C38.4457 11.9988 39.2832 12.1652 40.0642 12.4896C40.8451 12.814 41.5541 13.29 42.15 13.89L28 28L23.76 23.8C23.2296 23.2696 22.5102 22.9716 21.76 22.9716C21.0099 22.9716 20.2904 23.2696 19.76 23.8C19.2296 24.3304 18.9316 25.0499 18.9316 25.8C18.9316 26.1714 19.0047 26.5392 19.1469 26.8824C19.289 27.2256 19.4974 27.5374 19.76 27.8L26 34C26.2607 34.2661 26.5719 34.4775 26.9153 34.6218C27.2587 34.7661 27.6275 34.8404 28 34.8404C28.3725 34.8404 28.7413 34.7661 29.0847 34.6218C29.4281 34.4775 29.7393 34.2661 30 34L44 20Z" fill="#1654BB"/>
<path d="M43.9991 18.4V20L29.9991 34C29.7384 34.2661 29.4273 34.4775 29.0838 34.6218C28.7404 34.7661 28.3716 34.8404 27.9991 34.8404C27.6266 34.8404 27.2579 34.7661 26.9144 34.6218C26.571 34.4775 26.2598 34.2661 25.9991 34L19.7991 27.76C19.5365 27.4974 19.3281 27.1856 19.186 26.8424C19.0439 26.4992 18.9707 26.1314 18.9707 25.76C18.9707 25.0099 19.2687 24.2904 19.7991 23.76C20.3296 23.2296 21.049 22.9316 21.7991 22.9316C22.5493 22.9316 23.2687 23.2296 23.7991 23.76L27.9991 28L42.1491 13.89C43.3357 15.0911 44.0005 16.7117 43.9991 18.4Z" fill="white"/>
<path d="M70.3107 23.07H64.3107V37.83H59.4707V23.07H53.4707V19.35H70.3107V23.07ZM81.8407 25.47C82.5114 26.1846 83.0293 27.0285 83.3629 27.9501C83.6965 28.8717 83.8386 29.8516 83.7807 30.83C83.838 31.8083 83.6956 32.7881 83.3621 33.7095C83.0285 34.631 82.5109 35.475 81.8407 36.19C81.1062 36.8573 80.2457 37.371 79.3097 37.7007C78.3737 38.0304 77.3813 38.1696 76.3907 38.11C75.4098 38.1637 74.428 38.0217 73.5026 37.692C72.5772 37.3624 71.7267 36.8518 71.0007 36.19C70.3183 35.481 69.7887 34.6394 69.4446 33.7175C69.1006 32.7955 68.9495 31.8127 69.0007 30.83C68.9483 29.8471 69.0989 28.864 69.4429 27.9419C69.787 27.0197 70.3173 26.1783 71.0007 25.47C71.7327 24.802 72.5914 24.2879 73.5259 23.958C74.4604 23.6282 75.4516 23.4895 76.4407 23.55C77.423 23.4971 78.4061 23.6396 79.333 23.9692C80.2599 24.2987 81.1122 24.8088 81.8407 25.47ZM74.4007 27.86C73.8974 28.7755 73.6749 29.8188 73.7607 30.86C73.6749 31.9011 73.8974 32.9445 74.4007 33.86C74.6457 34.1522 74.9517 34.3871 75.2972 34.5483C75.6428 34.7095 76.0194 34.7931 76.4007 34.7931C76.782 34.7931 77.1586 34.7095 77.5042 34.5483C77.8497 34.3871 78.1557 34.1522 78.4007 33.86C78.904 32.9445 79.1265 31.9011 79.0407 30.86C79.1265 29.8188 78.904 28.7755 78.4007 27.86C78.1557 27.5678 77.8497 27.3329 77.5042 27.1717C77.1586 27.0105 76.782 26.9269 76.4007 26.9269C76.0194 26.9269 75.6428 27.0105 75.2972 27.1717C74.9517 27.3329 74.6457 27.5678 74.4007 27.86ZM100.781 17.86V37.83H96.5007L96.3307 35.17C95.951 36.0455 95.3258 36.7922 94.5307 37.32C93.7107 37.8541 92.7491 38.1293 91.7707 38.11C90.9634 38.1489 90.1583 37.9961 89.4213 37.6641C88.6844 37.3322 88.0365 36.8304 87.5307 36.2C86.424 34.6554 85.8836 32.7765 86.0007 30.88C85.8826 28.957 86.4261 27.0515 87.5407 25.48C88.0481 24.8449 88.6986 24.339 89.439 24.0035C90.1794 23.6681 90.9887 23.5127 91.8007 23.55C92.6984 23.5235 93.5833 23.7673 94.3407 24.25C95.0577 24.7322 95.6312 25.399 96.0007 26.18V17.89L100.781 17.86ZM95.2507 33.78C95.7501 33.0842 96.013 32.2464 96.0007 31.39V30.27C96.0051 29.4147 95.7352 28.5806 95.2307 27.89C95.0135 27.6156 94.7344 27.3966 94.4164 27.2506C94.0984 27.1046 93.7504 27.0359 93.4007 27.05C93.017 27.0239 92.6329 27.0944 92.2835 27.2552C91.9341 27.4159 91.6306 27.6616 91.4007 27.97C90.8855 28.8308 90.648 29.8294 90.7207 30.83C90.6461 31.8275 90.8838 32.8236 91.4007 33.68C91.6288 33.9908 91.9317 34.2391 92.2814 34.4016C92.631 34.5642 93.016 34.6359 93.4007 34.61C93.7526 34.6269 94.1035 34.5605 94.425 34.4163C94.7464 34.2721 95.0293 34.0541 95.2507 33.78ZM115.841 25.47C116.511 26.1846 117.029 27.0285 117.363 27.9501C117.696 28.8717 117.839 29.8516 117.781 30.83C117.838 31.8083 117.696 32.7881 117.362 33.7095C117.029 34.631 116.511 35.475 115.841 36.19C114.298 37.4326 112.377 38.1102 110.396 38.1102C108.415 38.1102 106.493 37.4326 104.951 36.19C104.268 35.481 103.739 34.6394 103.395 33.7175C103.051 32.7955 102.9 31.8127 102.951 30.83C102.898 29.8471 103.049 28.864 103.393 27.9419C103.737 27.0197 104.267 26.1783 104.951 25.47C106.493 24.2273 108.415 23.5497 110.396 23.5497C112.377 23.5497 114.298 24.2273 115.841 25.47ZM108.401 27.86C107.897 28.7755 107.675 29.8188 107.761 30.86C107.675 31.9011 107.897 32.9445 108.401 33.86C108.646 34.1522 108.952 34.3871 109.297 34.5483C109.643 34.7095 110.019 34.7931 110.401 34.7931C110.782 34.7931 111.159 34.7095 111.504 34.5483C111.85 34.3871 112.156 34.1522 112.401 33.86C112.904 32.9445 113.127 31.9011 113.041 30.86C113.127 29.8188 112.904 28.7755 112.401 27.86C112.156 27.5678 111.85 27.3329 111.504 27.1717C111.159 27.0105 110.782 26.9269 110.401 26.9269C110.019 26.9269 109.643 27.0105 109.297 27.1717C108.952 27.3329 108.646 27.5678 108.401 27.86ZM119.001 35.64L121.461 33C121.906 33.6787 122.527 34.2234 123.258 34.5758C123.989 34.9281 124.803 35.0748 125.611 35C126.137 35.0254 126.662 34.9367 127.151 34.74C127.305 34.6889 127.44 34.5932 127.54 34.465C127.64 34.3369 127.699 34.182 127.711 34.02C127.711 33.76 127.521 33.53 127.131 33.34C126.491 33.0629 125.819 32.868 125.131 32.76C123.537 32.5163 122.019 31.9146 120.691 31C120.263 30.6673 119.92 30.2387 119.689 29.7488C119.458 29.2589 119.345 28.7214 119.361 28.18C119.368 27.362 119.634 26.5673 120.121 25.91C120.706 25.1358 121.496 24.5402 122.401 24.19C123.58 23.7208 124.842 23.4962 126.111 23.53C127.455 23.4827 128.795 23.7072 130.051 24.19C131.043 24.6155 131.898 25.3078 132.521 26.19L130.061 28.6C129.661 27.9919 129.11 27.4989 128.461 27.17C127.768 26.8536 127.012 26.6997 126.251 26.72C125.71 26.6913 125.17 26.7978 124.681 27.03C124.526 27.0924 124.392 27.1965 124.293 27.3307C124.194 27.4649 124.135 27.6239 124.121 27.79C124.121 28.07 124.321 28.3 124.701 28.5C125.339 28.7768 126.012 28.9685 126.701 29.07C128.283 29.2537 129.802 29.7976 131.141 30.66C131.581 30.9939 131.935 31.4291 132.172 31.9286C132.408 32.4282 132.521 32.9775 132.501 33.53C132.511 34.18 132.36 34.8223 132.062 35.3999C131.763 35.9774 131.327 36.4721 130.791 36.84C129.305 37.7937 127.552 38.2426 125.791 38.12C122.597 38.1133 120.334 37.2867 119.001 35.64Z" fill="#1654BB"/>
</svg>
